<svg width="190" height="160" viewBox="0 0 190 160" fill="none" xmlns="http://www.w3.org/2000/svg">
<g clip-path="url(#clip0_1411_61567)">
<path d="M45.9911 31.4797C51.2222 32.5661 56.5443 32.8707 61.7936 32.157C69.8814 31.0615 80.5801 27.9977 88.0219 19.7927C101.495 4.93729 125.9 -10.0408 141.288 8.89207C156.681 27.825 151.3 49.3489 165.638 54.1674C179.976 58.9813 194.204 76.5595 183.615 99.5699C170.937 127.131 146.242 109.08 160.148 143.045C167.257 160.414 120.973 162.887 98.1021 150.618C77.1413 139.377 56.4806 168.978 36.8299 150.014C17.1791 131.049 47.1875 107.675 32.2583 94.9379C17.3292 82.2008 6.16193 74.3912 13.2762 51.699C18.612 34.6799 37.9261 29.8069 45.9866 31.4797H45.9911Z" fill="#F5F8FF"/>
<path d="M176.6 159.291C175.272 157.046 171.965 148.64 186.357 135.626C186.821 135.208 187.563 135.467 187.658 136.085C188.309 140.39 189.25 153.591 177.637 159.587C177.269 159.777 176.814 159.65 176.605 159.291H176.6Z" fill="#E1ECFA"/>
<path d="M186.475 137.809C186.475 137.809 184.837 143.986 181.567 148.9C178.296 153.814 177.195 159.428 177.195 159.428" fill="#E1ECFA"/>
<path d="M177.441 159.046C178.16 156.601 179.27 147.832 162.498 138.954C161.957 138.668 161.316 139.095 161.375 139.704C161.793 143.941 164.077 156.683 176.527 159.578C176.923 159.669 177.323 159.437 177.437 159.051L177.441 159.046Z" fill="#E1ECFA"/>
<path d="M162.912 141.055C162.912 141.055 165.951 146.519 170.236 150.392C174.521 154.265 176.913 159.324 176.913 159.324" fill="#E1ECFA"/>
<path d="M15.8417 159.414C17.4565 156.687 21.4685 146.477 3.99207 130.672C3.42802 130.163 2.52736 130.481 2.41364 131.231C1.62215 136.459 0.4804 152.491 14.5862 159.773C15.0365 160.005 15.5869 159.851 15.8417 159.414Z" fill="#E1ECFA"/>
<path d="M3.85156 133.326C3.85156 133.326 5.83938 140.831 9.81048 146.8C13.7816 152.773 15.1235 159.591 15.1235 159.591" fill="#E1ECFA"/>
<path d="M17.1335 159.333C16.4148 156.888 15.3049 148.119 32.0762 139.241C32.6175 138.955 33.2589 139.382 33.1998 139.991C32.7813 144.228 30.4978 156.97 18.0478 159.865C17.652 159.956 17.2517 159.724 17.138 159.338L17.1335 159.333Z" fill="#E1ECFA"/>
<path d="M31.6574 141.342C31.6574 141.342 28.6188 146.806 24.3339 150.679C20.0489 154.552 17.6562 159.611 17.6562 159.611" fill="#E1ECFA"/>
<path d="M141.247 109.961L148.061 97.7013L154.875 85.4415C155.689 83.9778 157.718 83.9778 158.532 85.4415L165.346 97.7013L172.16 109.961C172.975 111.425 171.956 113.252 170.332 113.252H164.723L164.518 156.673L148.611 156.127V113.252H143.08C141.456 113.252 140.437 111.425 141.251 109.961H141.247Z" fill="#E1ECFA"/>
<path d="M38.0436 46.3124L44.8577 34.5208L51.6718 22.7293C52.486 21.3246 54.5148 21.3246 55.329 22.7293L62.1431 34.5208L68.9572 46.3124C69.7714 47.717 68.7525 49.4762 67.1286 49.4762H61.5609L61.5017 146.691H45.4445V49.4762H39.8768C38.2529 49.4762 37.234 47.717 38.0482 46.3124H38.0436Z" fill="#E1ECFA"/>
<path d="M73.2233 95.3791L80.0374 83.1193L86.8515 70.8595C87.6657 69.3958 89.6945 69.3958 90.5087 70.8595L97.3228 83.1193L104.137 95.3791C104.951 96.8428 103.932 98.6702 102.308 98.6702H96.6996L96.4131 159.46C96.4131 160.842 93.3836 157.942 92.0553 157.942L83.6264 157.437C82.2982 157.437 80.5878 160.437 80.5878 159.055V98.6747H75.0565C73.4326 98.6747 72.4136 96.8473 73.2279 95.3836L73.2233 95.3791Z" fill="#E1ECFA"/>
<path d="M158.929 47.5119L159.27 36.334L158.656 37.1886L158.228 47.5301L158.242 47.5392C156.954 47.9483 156.736 50.1757 156.7 51.0212C156.691 51.203 156.827 51.3621 157.004 51.3803L158.055 51.4985C158.233 51.5167 158.396 51.3985 158.433 51.2257L158.556 50.6302L158.851 51.403C158.897 51.5258 159.006 51.6076 159.138 51.6258L159.738 51.6939C159.938 51.7167 160.116 51.5667 160.125 51.3712C160.175 50.403 160.175 47.8392 158.924 47.5119H158.929Z" fill="#F0C66C"/>
<path d="M128.871 10.5192L158.142 14.2649C158.597 14.324 158.988 14.6104 159.179 15.0286L171.065 40.8346C171.506 41.7937 170.706 42.8574 169.664 42.7029L141.43 38.5208C141.002 38.4572 140.634 38.1935 140.438 37.8071L127.515 12.4375C127.028 11.4875 127.811 10.3828 128.871 10.5147V10.5192Z" fill="#264256"/>
<path d="M130.027 81.623H126.42V95.4466H130.027V81.623Z" fill="#F0C66C"/>
<path d="M137.567 94.8418H118.876C118.321 94.8418 117.871 95.2916 117.871 95.8464V105.238C117.871 105.793 118.321 106.242 118.876 106.242H137.567C138.123 106.242 138.573 105.793 138.573 105.238V95.8464C138.573 95.2916 138.123 94.8418 137.567 94.8418Z" fill="#E69724"/>
<path d="M164.424 44.3844C161.09 38.7068 154.785 40.7342 151.86 42.0843L152.811 35.6339C153.12 33.5475 151.515 31.6655 149.404 31.6383L109.152 31.1019C106.955 31.0746 105.204 32.9383 105.376 35.1294L105.918 41.9752C102.902 40.6297 96.8383 38.8478 93.5905 44.3799C89.4465 51.4348 99.6449 71.386 112.122 66.3402C113.369 67.7494 114.797 68.9904 116.375 70.0268C116.412 70.0495 116.439 70.0677 116.475 70.0904C116.798 70.2814 118.636 71.345 119.705 71.8133C119.764 71.8405 119.819 71.8678 119.878 71.8996C123.103 73.8134 127.292 76.9636 126.569 80.0683L130.131 80.0501C130.131 80.0501 128.971 75.5453 135.917 72.6769C136.372 72.5269 137.309 72.1633 137.518 72.0815C137.545 72.0724 137.573 72.0587 137.6 72.0496C140.652 70.745 143.341 68.7131 145.433 66.1448C158.12 71.886 168.623 51.5303 164.429 44.3844H164.424ZM97.6662 46.8437C99.8542 43.1162 103.771 43.8708 106.141 44.789L106.873 54.0304C107.15 57.5124 108.269 60.749 110.025 63.5492C101.419 65.4129 94.7459 51.8167 97.6617 46.8482L97.6662 46.8437ZM147.33 63.3719C148.54 61.2399 149.395 58.8625 149.773 56.2987L151.442 44.9663C153.739 43.9844 158.024 42.8798 160.358 46.8437C163.351 51.9394 156.255 66.1038 147.334 63.3719H147.33Z" fill="#F0C66C"/>
<path d="M105.566 37.5254H152.333L152.078 40.5983H105.807L105.566 37.5254Z" fill="#E69724"/>
<path d="M131.905 80.0723H124.549C124.303 80.0723 124.104 80.2717 124.104 80.5178V82.7315C124.104 82.9775 124.303 83.177 124.549 83.177H131.905C132.151 83.177 132.35 82.9775 132.35 82.7315V80.5178C132.35 80.2717 132.151 80.0723 131.905 80.0723Z" fill="#E69724"/>
<path d="M137.965 19.5921L131.437 28.6562C130.873 29.4381 130.837 30.479 131.351 31.2973C133.534 34.7747 140.125 43.7162 151.07 45.5163C151.948 45.6617 152.835 45.2799 153.353 44.5571L159.967 35.3657C160.481 34.652 160.558 33.7156 160.167 32.9292C158.457 29.4881 152.821 20.4285 140.207 18.6284C139.338 18.5056 138.479 18.8829 137.965 19.5966V19.5921Z" fill="#315782"/>
<path d="M69.6715 134.984L69.5941 137.53L66.3145 137.512L66.3281 134.971L69.6715 134.984Z" fill="#F3D6C1"/>
<path d="M66.3144 137.512L69.5213 137.525C69.5714 137.525 69.6168 137.53 69.6623 137.544C70.1218 137.653 72.7282 138.312 75.0254 139.58C75.5985 139.894 75.362 140.766 74.7115 140.766L66.9331 140.73C66.5828 140.73 66.3008 140.444 66.3008 140.094L66.3144 137.516V137.512Z" fill="#2F526E"/>
<path d="M45.842 140.258L45.7601 142.803L42.4805 142.785L42.4941 140.244L45.842 140.258Z" fill="#F3D6C1"/>
<path d="M42.4785 142.785L45.6854 142.799C45.7354 142.799 45.7809 142.803 45.8264 142.817C46.2858 142.926 48.8923 143.585 51.1894 144.853C51.7626 145.167 51.526 146.04 50.8756 146.04L43.0971 146.004C42.7469 146.004 42.4648 145.717 42.4648 145.367L42.4785 142.79V142.785Z" fill="#2F526E"/>
<path d="M51.573 106.305L48.4071 122.865L42.066 140.761C42.066 140.761 41.7476 141.348 42.6255 141.625H46.0735C46.0735 141.625 46.5648 141.516 46.7877 141.093L53.8929 127.72L58.005 114.269L67.4574 121.428L65.3513 135.443C65.3513 135.443 65.374 135.843 65.9335 135.843H69.7682C69.7682 135.843 70.1776 135.725 70.2731 135.315L73.9622 119.869C73.9622 119.869 73.9622 119.855 73.9667 119.851C73.9849 119.796 74.0531 119.501 73.4936 118.819C72.8704 118.06 64.5507 107.896 64.5507 107.896L51.5685 106.314L51.573 106.305Z" fill="#F0C66C"/>
<path d="M75.0218 89.4365L77.4645 90.7365L84.8562 85.159C84.8562 85.159 84.1466 83.8953 84.3104 82.877C84.4741 81.8588 84.7744 81.6724 84.9791 81.8406C85.1883 82.0088 85.161 83.2316 85.6022 83.4634C86.0435 83.6952 86.2391 83.4452 86.7576 82.0633C87.2808 80.6814 87.5082 80.045 87.9449 80.0314C88.3816 80.0178 88.3315 80.9905 88.3315 80.9905C88.3315 80.9905 88.7136 80.7951 89.0138 80.986C89.3141 81.1724 89.1912 81.5633 89.1912 81.5633C89.1912 81.5633 89.4414 81.4678 89.7553 81.7224C90.0737 81.977 89.8781 82.4224 89.8781 82.4224C89.8781 82.4224 90.4194 82.1997 90.424 82.9997C90.424 83.7998 90.0419 86.3863 86.7758 87.0091C86.7758 87.0091 79.0474 96.2778 77.8284 96.2641C76.6093 96.255 73.084 95.055 73.084 95.055L75.0172 89.441L75.0218 89.4365Z" fill="#F3D6C1"/>
<path d="M52.5688 109.06H50.4218C50.3308 108.269 50.0306 107.033 49.0981 106.051C48.1792 105.083 46.8783 104.592 45.2407 104.592C42.4296 104.592 41.0786 106.106 40.4372 107.374C40.1324 107.978 39.9641 108.578 39.8686 109.06H37.6442C36.9801 109.06 36.4434 109.597 36.4434 110.26V119.393C36.4434 120.056 36.9801 120.593 37.6442 120.593H52.5734C53.2375 120.593 53.7742 120.056 53.7742 119.393V110.26C53.7742 109.597 53.2375 109.06 52.5734 109.06H52.5688ZM45.2362 106.21C46.4098 106.21 47.3104 106.528 47.9109 107.16C48.4749 107.747 48.6978 108.515 48.7842 109.065H41.5062C41.7927 107.906 42.6525 106.215 45.2362 106.215V106.21Z" fill="#315780"/>
<path d="M51.0436 92.9859L48.3325 93.5495L46.2173 102.564C46.2173 102.564 47.5728 103.082 48.0959 103.968C48.6236 104.855 48.6191 105.65 48.3643 105.446C48.2051 105.323 47.9822 105.205 47.6638 105.055C47.2362 104.855 47.0088 104.577 46.7268 104.641C46.24 104.746 45.7442 105.041 46.2992 106C46.8359 106.932 48.2461 107.005 47.9413 107.314C47.1634 108.1 46.4038 107.305 46.4038 107.305C46.4038 107.305 46.2082 107.746 45.8579 107.791C45.5077 107.837 45.2757 107.246 45.2757 107.246C45.2757 107.246 45.0665 107.632 44.6616 107.637C44.2568 107.641 44.0794 107.091 44.0794 107.091C44.0794 107.091 43.5426 107.746 43.0286 107.132C42.5146 106.518 41.4502 104.937 43.5608 102.373C43.5608 102.373 43.5699 90.3084 44.5161 89.5357C45.4622 88.7629 48.9375 87.4355 48.9375 87.4355L51.0436 92.9859Z" fill="#F3D6C1"/>
<path d="M51.1908 106.896C52.9649 107.596 59.7289 110.028 65.242 108.8C65.4831 108.746 65.6514 108.532 65.656 108.287C65.6833 106.555 65.8698 99.8772 67.0206 97.6679C67.8758 96.0315 68.3762 94.9678 68.6263 94.4178C68.7401 94.1632 69.0312 94.0405 69.295 94.1405L73.2616 95.5905C73.539 95.6905 73.8483 95.5496 73.9484 95.2678L75.8407 90.0311C75.9362 89.7675 75.8089 89.472 75.5496 89.3584C74.0985 88.7311 69.4815 86.8173 65.8015 86.2673C61.4165 85.6082 59.8563 80.9352 47.993 87.4764C47.7792 87.5946 47.6837 87.8583 47.7792 88.081L49.8216 92.9859C49.9308 93.254 50.2356 93.3813 50.504 93.2813L53.8928 91.9903C54.3022 91.8358 54.7161 92.2085 54.5979 92.6313L50.8724 106.255C50.7996 106.518 50.9361 106.791 51.1908 106.891V106.896Z" fill="#315782"/>
<path d="M69.1506 74.0938C69.1506 74.0938 69.2461 75.1347 70.356 77.3394C71.4887 79.5941 71.1247 82.9306 69.378 83.5852C68.0179 84.0943 67.0399 83.7943 67.0399 83.7943L66.3394 87.3536L61.9771 85.6444L62.4548 82.6215L61.5859 75.7984L69.1506 74.0938Z" fill="#F3D6C1"/>
<path d="M70.3632 72.0125C70.3996 71.6761 70.0812 71.4034 69.7537 71.5034C69.085 71.7079 67.7795 71.8988 65.4323 71.5852C60.9472 70.9851 58.6365 74.8626 58.6683 77.6764C58.6956 80.0857 61.2748 81.4448 62.089 82.454C62.2664 82.6722 62.5939 82.6767 62.7895 82.4767C63.2535 82.004 63.8994 81.2994 63.9221 81.0221C63.954 80.5857 62.6849 80.5221 62.6166 79.2174C62.5484 77.9128 64.2906 77.7446 64.791 78.7492C65.2913 79.7538 65.0593 76.2718 65.9964 75.94C66.8607 75.6309 70.0494 74.9035 70.3541 72.017L70.3632 72.0125Z" fill="#2F5482"/>
<path d="M62.1543 84.959C62.1543 84.959 61.0807 87.5864 63.7554 88.5774C66.4301 89.5683 66.512 86.3954 66.512 86.3954L62.1543 84.959Z" fill="#F3D6C1"/>
<path d="M80.9414 140.035C80.9414 140.426 81.2325 140.744 81.5964 140.744H144.374C149.032 140.744 152.803 137.367 152.803 133.198V130.739C152.803 126.571 149.028 123.193 144.374 123.193H81.5964C81.2371 123.193 80.9414 123.512 80.9414 123.902V124.03C80.9414 124.416 81.2325 124.734 81.5919 124.739H82.4107L82.4562 139.335H81.5964C81.2371 139.335 80.9414 139.653 80.9414 140.04V140.035Z" fill="#315782"/>
<path d="M124.497 124.68L82.3477 124.739L82.3931 139.327H124.929C127.117 139.327 128.891 137.408 128.891 135.045V129.431C128.891 126.803 126.921 124.676 124.492 124.676L124.497 124.68Z" fill="#F9ECDC"/>
<path d="M139.59 132.703V131.23C139.59 130.794 139.235 130.439 138.798 130.439H132.744C132.307 130.439 131.952 130.794 131.952 131.23V132.703C131.952 133.14 132.307 133.494 132.744 133.494H138.798C139.235 133.494 139.59 133.14 139.59 132.703Z" fill="#E69724"/>
<path d="M126.544 126.953H82.457" stroke="#F0C66C" stroke-miterlimit="10" stroke-linecap="round"/>
<path d="M123.364 129.152H82.457" stroke="#F0C66C" stroke-miterlimit="10" stroke-linecap="round"/>
<path d="M126.544 133.135H82.457" stroke="#F0C66C" stroke-miterlimit="10" stroke-linecap="round"/>
<path d="M127.235 137.268H82.457" stroke="#F0C66C" stroke-miterlimit="10" stroke-linecap="round"/>
<path d="M170.293 158.808C170.293 159.226 169.824 159.567 169.247 159.567H68.7502C61.2947 159.567 55.2539 155.935 55.2539 151.453V148.807C55.2539 144.325 61.2947 140.693 68.7502 140.693H169.247C169.824 140.693 170.293 141.034 170.293 141.452V141.589C170.293 142.007 169.829 142.348 169.256 142.348L167.941 142.357L167.868 158.049H169.247C169.824 158.049 170.293 158.39 170.293 158.808Z" fill="#E69724"/>
<path d="M100.105 142.289L167.959 142.353L167.886 158.045H100.446C96.6251 158.045 93.5273 155.79 93.5273 153.012V147.071C93.5273 144.43 96.4704 142.289 100.105 142.289Z" fill="#F9ECDC"/>
<path d="M83.6233 146.285H81.4171C80.779 146.285 80.2617 146.802 80.2617 147.44V154.022C80.2617 154.66 80.779 155.177 81.4171 155.177H83.6233C84.2614 155.177 84.7787 154.66 84.7787 154.022V147.44C84.7787 146.802 84.2614 146.285 83.6233 146.285Z" fill="#315780"/>
<path d="M76.7053 146.326H74.4991C73.861 146.326 73.3438 146.843 73.3438 147.481V154.063C73.3438 154.701 73.861 155.218 74.4991 155.218H76.7053C77.3434 155.218 77.8607 154.701 77.8607 154.063V147.481C77.8607 146.843 77.3434 146.326 76.7053 146.326Z" fill="#315780"/>
<path d="M101.092 144.734H167.868" stroke="#F0C66C" stroke-miterlimit="10" stroke-linecap="round"/>
<path d="M110.211 150.012H167.908" stroke="#F0C66C" stroke-miterlimit="10" stroke-linecap="round"/>
<path d="M95.7148 151.99H167.868" stroke="#F0C66C" stroke-miterlimit="10" stroke-linecap="round"/>
<path d="M98.6855 156.436H167.868" stroke="#F0C66C" stroke-miterlimit="10" stroke-linecap="round"/>
<path d="M157.342 122.657C157.342 123.039 157.06 123.348 156.71 123.348H95.8786C91.3662 123.348 87.709 120.057 87.709 115.993V113.597C87.709 109.538 91.3662 106.242 95.8786 106.242H156.71C157.06 106.242 157.342 106.551 157.342 106.933V107.056C157.342 107.433 157.06 107.742 156.714 107.747H155.918L155.873 121.97H156.71C157.06 121.97 157.342 122.279 157.342 122.661V122.657Z" fill="#F0C66C"/>
<path d="M114.855 107.691L155.931 107.75L155.885 121.965H115.064C112.749 121.965 110.875 119.924 110.875 117.406V112.023C110.875 109.632 112.658 107.691 114.855 107.691Z" fill="#F9ECDC"/>
<path d="M104.422 111.311H103.999C103.361 111.311 102.844 111.827 102.844 112.465V118.215C102.844 118.853 103.361 119.37 103.999 119.37H104.422C105.06 119.37 105.578 118.853 105.578 118.215V112.465C105.578 111.827 105.06 111.311 104.422 111.311Z" fill="#E69724"/>
<path d="M100.237 111.348H99.8136C99.1755 111.348 98.6582 111.865 98.6582 112.502V118.253C98.6582 118.89 99.1755 119.407 99.8136 119.407H100.237C100.875 119.407 101.392 118.89 101.392 118.253V112.502C101.392 111.865 100.875 111.348 100.237 111.348Z" fill="#E69724"/>
<path d="M115.453 109.91H155.874" stroke="#F0C66C" stroke-miterlimit="10" stroke-linecap="round"/>
<path d="M120.975 114.688H155.9" stroke="#F0C66C" stroke-miterlimit="10" stroke-linecap="round"/>
<path d="M112.199 116.479H155.872" stroke="#F0C66C" stroke-miterlimit="10" stroke-linecap="round"/>
<path d="M113.996 120.506H155.872" stroke="#F0C66C" stroke-miterlimit="10" stroke-linecap="round"/>
<path d="M29.666 159.222C29.666 159.526 29.948 159.776 30.2937 159.776H90.6698C95.1458 159.776 98.7803 157.131 98.7803 153.871V151.944C98.7803 148.68 95.1504 146.039 90.6698 146.039H30.2937C29.948 146.039 29.666 146.289 29.666 146.594V146.694C29.666 146.998 29.9435 147.244 30.2892 147.248H31.0761L31.1216 158.676H30.2937C29.948 158.676 29.666 158.922 29.666 159.231V159.222Z" fill="#F0C66C"/>
<path d="M71.5604 147.202L31.0762 147.248L31.1217 158.667H71.9789C74.0804 158.667 75.7817 157.167 75.7817 155.312V150.916C75.7817 148.862 73.8894 147.193 71.5559 147.193L71.5604 147.202Z" fill="#F9ECDC"/>
<path d="M73.5204 148.984H31.1211" stroke="#F0C66C" stroke-miterlimit="10" stroke-linecap="round"/>
<path d="M70.4636 150.703H31.1211" stroke="#F0C66C" stroke-miterlimit="10" stroke-linecap="round"/>
<path d="M73.5204 153.822H31.1211" stroke="#F0C66C" stroke-miterlimit="10" stroke-linecap="round"/>
<path d="M74.1845 157.059H31.1211" stroke="#F0C66C" stroke-miterlimit="10" stroke-linecap="round"/>
<path d="M6.00781 159.773H185.617" stroke="#315782" stroke-miterlimit="10" stroke-linecap="round"/>
</g>
<defs>
<clipPath id="clip0_1411_61567">
<rect width="186" height="160" fill="white" transform="translate(2)"/>
</clipPath>
</defs>
</svg>
